<?xml version="1.0" encoding="UTF-8" standalone="no"?>
<!-- Created with Inkscape (http://www.inkscape.org/) -->

<svg
   xmlns:dc="http://purl.org/dc/elements/1.1/"
   xmlns:cc="http://creativecommons.org/ns#"
   xmlns:rdf="http://www.w3.org/1999/02/22-rdf-syntax-ns#"
   xmlns:svg="http://www.w3.org/2000/svg"
   xmlns="http://www.w3.org/2000/svg"
   xmlns:sodipodi="http://sodipodi.sourceforge.net/DTD/sodipodi-0.dtd"
   xmlns:inkscape="http://www.inkscape.org/namespaces/inkscape"
   width="238.73045mm"
   height="60.212757mm"
   viewBox="0 0 238.73046 60.212757"
   version="1.1"
   id="svg167347"
   inkscape:version="0.92.3 (2405546, 2018-03-11)"
   sodipodi:docname="INRAE_genphyse_logo.svg">
  <defs
     id="defs167341">
    <clipPath
       clipPathUnits="userSpaceOnUse"
       id="clipPath18">
      <path
         d="M 0,196.298 H 413.962 V 0 H 0 Z"
         id="path16"
         inkscape:connector-curvature="0" />
    </clipPath>
  </defs>
  <sodipodi:namedview
     id="base"
     pagecolor="#ffffff"
     bordercolor="#666666"
     borderopacity="1.0"
     inkscape:pageopacity="0.0"
     inkscape:pageshadow="2"
     inkscape:zoom="0.35"
     inkscape:cx="-310.54385"
     inkscape:cy="-46.497261"
     inkscape:document-units="mm"
     inkscape:current-layer="layer1"
     showgrid="false"
     fit-margin-top="5"
     fit-margin-right="5"
     fit-margin-bottom="5"
     fit-margin-left="5"
     inkscape:window-width="2493"
     inkscape:window-height="1385"
     inkscape:window-x="67"
     inkscape:window-y="27"
     inkscape:window-maximized="1" />
  <metadata
     id="metadata167344">
    <rdf:RDF>
      <cc:Work
         rdf:about="">
        <dc:format>image/svg+xml</dc:format>
        <dc:type
           rdf:resource="http://purl.org/dc/dcmitype/StillImage" />
        <dc:title></dc:title>
      </cc:Work>
    </rdf:RDF>
  </metadata>
  <g
     inkscape:label="Calque 1"
     inkscape:groupmode="layer"
     id="layer1"
     transform="translate(17.24301,-76.318175)">
    <g
       id="g250925"
       transform="translate(0,3.5353085)">
      <g
         transform="matrix(0.35277777,0,0,-0.35277777,130.55222,123.35748)"
         id="g216">
        <path
           inkscape:connector-curvature="0"
           id="path218"
           style="fill:#444141;fill-opacity:1;fill-rule:nonzero;stroke:none"
           d="m 0,0 v 4.646 c -2.847,-3.58 -6.568,-5.371 -11.165,-5.371 -4.451,0 -8.14,1.768 -11.071,5.305 -2.807,3.361 -4.208,7.393 -4.208,12.094 v 11.367 c 0,4.699 1.4,8.73 4.204,12.092 2.927,3.537 6.613,5.305 11.058,5.305 4.444,0 8.132,-1.768 11.06,-5.305 C 2.679,36.771 4.081,32.74 4.081,28.041 H 0 c 0,3.68 -0.958,6.736 -2.876,9.17 -2.062,2.605 -4.82,3.91 -8.274,3.91 -3.327,0 -6.035,-1.25 -8.119,-3.75 C -21.29,35.004 -22.3,32.064 -22.3,28.557 V 16.158 c 0,-3.51 1.008,-6.449 3.028,-8.816 2.082,-2.5 4.784,-3.75 8.107,-3.75 3.363,0 6.098,1.271 8.2,3.814 C -0.988,9.793 0,12.771 0,16.344 h -9.078 c -0.023,0.679 -0.032,1.691 -0.032,3.031 l 0.032,1.219 H 2.31 c 0.358,0 0.744,-0.215 1.154,-0.643 0.411,-0.428 0.617,-0.828 0.617,-1.203 V 0 Z" />
      </g>
      <g
         transform="matrix(0.35277777,0,0,-0.35277777,139.28933,113.50038)"
         id="g220">
        <path
           inkscape:connector-curvature="0"
           id="path222"
           style="fill:#444141;fill-opacity:1;fill-rule:nonzero;stroke:none"
           d="m 0,0 c -2.319,0 -4.502,-0.844 -6.547,-2.527 -1.918,-1.575 -3.322,-3.534 -4.208,-5.875 H 10.439 C 9.679,-6.037 8.361,-4.059 6.485,-2.461 4.503,-0.82 2.342,0 0,0 m -11.291,-12.717 c 0.125,-3.103 1.285,-5.801 3.478,-8.094 2.235,-2.359 4.84,-3.539 7.813,-3.539 2.172,0 4.313,0.688 6.422,2.067 2.108,1.377 3.627,3.082 4.555,5.117 l 4.111,-0.758 c -1.18,-3.053 -3.209,-5.607 -6.088,-7.66 -2.879,-2.055 -5.879,-3.082 -9,-3.082 -4.195,0 -7.801,1.646 -10.816,4.943 -3.017,3.295 -4.526,7.139 -4.526,11.532 0,4.394 1.509,8.242 4.526,11.548 3.015,3.307 6.621,4.959 10.816,4.959 4.322,0 7.961,-1.726 10.912,-5.183 2.848,-3.322 4.271,-7.274 4.271,-11.85 z" />
      </g>
      <g
         transform="matrix(0.35277777,0,0,-0.35277777,146.67699,112.23327)"
         id="g224">
        <path
           inkscape:connector-curvature="0"
           id="path226"
           style="fill:#444141;fill-opacity:1;fill-rule:nonzero;stroke:none"
           d="m 0,0 h 4.143 v -5.732 c 2.421,4.304 6.013,6.457 10.771,6.457 4.571,0 8.119,-1.538 10.649,-4.614 2.358,-2.877 3.537,-6.754 3.537,-11.631 v -16.013 h -4.145 v 15.732 c 0,3.621 -0.779,6.494 -2.339,8.621 -1.729,2.393 -4.292,3.588 -7.687,3.588 -3.184,0 -5.799,-1.217 -7.845,-3.652 -1.961,-2.326 -2.941,-5.18 -2.941,-8.557 V -31.533 H 0 Z" />
      </g>
      <g
         transform="matrix(0.35277777,0,0,-0.35277777,160.58035,109.12992)"
         id="g228">
        <path
           inkscape:connector-curvature="0"
           id="path230"
           style="fill:#444141;fill-opacity:1;fill-rule:nonzero;stroke:none"
           d="m 0,0 v -18.979 h 7.972 c 3.248,0 6.052,0.735 8.415,2.202 2.803,1.75 4.207,4.201 4.207,7.353 0,3.219 -1.392,5.67 -4.175,7.356 C 14.12,-0.689 11.304,0 7.972,0 Z M 0,-23.295 V -40.33 H -4.142 V 4.316 H 8.003 c 4.196,0 7.93,-1.173 11.199,-3.525 3.689,-2.635 5.535,-6.041 5.535,-10.215 0,-4.217 -1.837,-7.654 -5.511,-10.312 -3.272,-2.373 -7.02,-3.559 -11.245,-3.559 z" />
      </g>
      <g
         transform="matrix(0.35277777,0,0,-0.35277777,170.97007,107.60719)"
         id="g232">
        <path
           inkscape:connector-curvature="0"
           id="path234"
           style="fill:#444141;fill-opacity:1;fill-rule:nonzero;stroke:none"
           d="m 0,0 h 4.144 v -18.846 c 2.652,4.305 6.221,6.457 10.708,6.457 4.065,0 7.35,-1.691 9.856,-5.074 2.294,-3.098 3.442,-6.82 3.442,-11.17 v -16.013 h -4.143 v 15.732 c 0,3.269 -0.726,6.033 -2.175,8.293 -1.682,2.609 -4.016,3.916 -7,3.916 -3.006,0 -5.56,-1.262 -7.661,-3.785 -2.02,-2.436 -3.027,-5.244 -3.027,-8.424 V -44.646 H 0 Z" />
      </g>
      <g
         transform="matrix(0.35277777,0,0,-0.35277777,184.69465,126.47255)"
         id="g236">
        <path
           inkscape:connector-curvature="0"
           id="path238"
           style="fill:#444141;fill-opacity:1;fill-rule:nonzero;stroke:none"
           d="M 0,0 C 2.772,-0.043 4.483,0.771 5.134,2.447 L 8.4,11 -6.958,40.363 h 4.719 l 12.615,-24.187 9.206,24.187 h 4.459 L 9.554,2.438 C 7.804,-2.131 4.745,-4.381 0.381,-4.316 H 0 Z" />
      </g>
      <g
         transform="matrix(0.35277777,0,0,-0.35277777,196.24466,111.75442)"
         id="g240">
        <path
           inkscape:connector-curvature="0"
           id="path242"
           style="fill:#444141;fill-opacity:1;fill-rule:nonzero;stroke:none"
           d="m 0,0 c 0,-3.6 2.295,-6.068 6.887,-7.408 4.256,-1.119 8.511,-2.229 12.765,-3.324 4.571,-1.956 6.858,-5.446 6.858,-10.471 0,-3.733 -1.733,-6.803 -5.192,-9.219 -3.056,-2.129 -6.47,-3.193 -10.248,-3.193 -3.984,0 -7.412,1.088 -10.279,3.261 -3.164,2.418 -4.807,5.624 -4.934,9.622 h 4.108 c 0.125,-2.954 1.312,-5.174 3.568,-6.663 1.938,-1.269 4.424,-1.904 7.457,-1.904 2.885,0 5.381,0.613 7.487,1.844 2.591,1.514 3.886,3.644 3.886,6.389 0,3.597 -2.285,6.101 -6.857,7.503 -4.252,1.12 -8.508,2.25 -12.762,3.393 -4.594,1.932 -6.887,5.322 -6.887,10.174 0,3.861 1.645,6.99 4.934,9.383 2.932,2.107 6.326,3.16 10.184,3.16 4.156,0 7.675,-1.033 10.566,-3.098 3.311,-2.371 4.969,-5.633 4.969,-9.785 H 22.4 c 0,3.02 -1.179,5.274 -3.539,6.762 C 16.945,7.629 14.439,8.23 11.344,8.23 3.781,8.23 0,5.486 0,0" />
      </g>
      <g
         transform="matrix(0.35277777,0,0,-0.35277777,216.3978,107.60719)"
         id="g244">
        <path
           inkscape:connector-curvature="0"
           id="path246"
           style="fill:#444141;fill-opacity:1;fill-rule:nonzero;stroke:none"
           d="m 0,0 v -4.316 h -20.877 v -14.069 h 16.766 v -4.316 H -20.877 V -40.33 H 0 v -4.316 H -25.02 V 0 Z" />
      </g>
      <path
         d="m 121.21705,80.182848 v 11.61415 c 0.0681,-0.05256 0.13617,-0.104069 0.20461,-0.155222 0.72284,-0.540103 1.45768,-1.060097 2.21756,-1.555044 0.95145,-0.618067 2.032,-0.910873 2.99685,-1.464734 0.10901,-0.06209 0.22049,-0.112183 0.3048,-0.206727 0.4572,-0.51682 1.0855,-0.673101 1.72191,-0.748242 0.37289,-0.04339 0.76941,-0.182739 1.14688,0.04904 0.15028,0.09278 0.27093,-0.01199 0.34925,-0.146756 0.14711,-0.255058 0.1972,-0.534811 0.18274,-0.823383 -0.0356,-0.731308 -0.003,-1.460147 0.10618,-2.182283 0.0819,-0.545042 0.24589,-1.072092 0.58209,-1.526117 0.0423,-0.05715 0.10266,-0.111125 0.11818,-0.175683 0.10654,-0.434975 0.44062,-0.616656 0.81774,-0.755298 h 0.21413 c 0.20497,0.104775 0.41134,0.207434 0.61525,0.31362 0.16333,0.08467 0.27516,0.189442 0.27904,0.403578 0.007,0.333022 0.20285,0.563738 0.49566,0.705555 0.19473,0.09454 0.36794,0.21837 0.52987,0.357717 0.10266,0.08819 0.15663,0.197203 0.0861,0.3302 -0.0554,0.105128 -0.15593,0.147814 -0.26811,0.140405 -0.10513,-0.0074 -0.20849,-0.03986 -0.31292,-0.05786 -0.9652,-0.160513 -1.48272,0.372181 -1.35219,1.339498 0.0554,0.411339 0.20426,0.764822 0.35948,1.142294 0.34254,0.833614 0.68827,1.680634 0.82761,2.577748 0.16369,1.045986 -0.17356,1.989666 -0.81491,2.794 -0.86748,1.086555 -1.92687,1.938161 -3.29883,2.325864 -0.66004,0.186972 -1.02729,0.856544 -0.86113,1.548341 0.0505,0.208845 0.14746,0.30727 0.36548,0.294922 0.40746,-0.02469 0.8188,0.04904 1.22414,-0.05927 0.13264,-0.03598 0.29492,-0.09313 0.3817,0.06809 0.067,0.125589 -0.0346,0.237067 -0.1016,0.339725 -0.067,0.101953 -0.19438,0.159103 -0.21836,0.296333 0.0402,0.140053 0.17568,0.08961 0.26493,0.131586 0.26035,0.121356 0.33267,0.436739 0.15099,0.651934 -0.49918,0.592666 -0.50588,0.6096 -1.24319,0.309386 -0.44097,-0.179917 -0.86889,-0.348545 -1.35819,-0.25647 -0.24942,0.04692 -0.34114,-0.141816 -0.40182,-0.335491 -0.0201,-0.0628 -0.0109,-0.144639 0.0106,-0.210256 0.30904,-0.929217 -0.29139,-1.592086 -0.67874,-2.317044 -0.0635,-0.118534 -0.17709,-0.154517 -0.30868,-0.179211 -0.45367,-0.08537 -0.90593,-0.172156 -1.30528,-0.434623 -0.14922,-0.09878 -0.3436,-0.07091 -0.5214,-0.08749 -0.58138,-0.05256 -1.17123,-0.07373 -1.65347,-0.482247 -0.13653,-0.116064 -0.30727,-0.04551 -0.4632,-0.01658 -0.48824,0.09031 -0.94121,0.282222 -1.39171,0.478014 v 5.020381 h 19.0567 v -19.05635 z"
         style="fill:#008c8e;fill-opacity:1;fill-rule:nonzero;stroke:none;stroke-width:0.35277775"
         id="path250"
         inkscape:connector-curvature="0" />
      <path
         inkscape:connector-curvature="0"
         id="path252"
         style="fill:#008c8e;fill-opacity:1;fill-rule:nonzero;stroke:none;stroke-width:0.35277775"
         d="m 140.27368,100.02575 h -19.0567 v -0.326671 h 19.0567 z" />
      <path
         inkscape:connector-curvature="0"
         id="path254"
         style="fill:#008c8e;fill-opacity:1;fill-rule:nonzero;stroke:none;stroke-width:0.35277775"
         d="m 140.27368,100.8128 h -19.0567 v -0.32667 h 19.0567 z" />
      <path
         d="m 214.904,98.445977 c -0.66217,0.07514 -1.32786,0.122767 -1.99179,0.188736 -0.18344,0.01799 -0.35771,-0.0448 -0.54927,-0.0095 -0.25965,0.04833 -0.54293,-0.223308 -0.4692,-0.416278 0.0776,-0.203905 0.005,-0.294216 -0.18732,-0.32879 -0.049,-0.0088 -0.10266,7.15e-4 -0.15099,-0.01235 -0.26106,-0.07303 -0.52458,-0.1778 -0.79375,-0.164394 -0.34184,0.01552 -0.68016,0.101953 -1.02129,0.143933 -0.20885,0.0254 -0.42087,0.03493 -0.63183,0.03634 -0.33337,0.0028 -0.66745,-0.02681 -1.00047,-0.0095 -0.54681,0.02893 -1.08021,0.19685 -1.63407,0.160514 -0.0374,-0.0028 -0.0787,-0.0194 -0.10971,-0.0078 -0.3355,0.123472 -0.69392,0.07338 -1.03894,0.132997 -0.37288,0.06491 -0.74894,-0.05856 -1.11689,-0.137583 -0.24694,-0.05256 -0.41557,-0.252236 -0.33831,-0.388056 0.25188,-0.4445 0.65299,-0.67945 1.1437,-0.776464 0.0462,-0.0095 0.10337,-0.0035 0.0797,-0.07373 -0.0638,-0.191558 -0.14746,-0.370064 -0.3182,-0.4953 -0.0508,-0.0374 -0.0868,-0.09596 -0.12806,-0.145345 -0.1771,-0.210961 -0.34255,-0.432858 -0.53481,-0.629355 -0.10689,-0.110067 -0.20461,-0.204611 -0.26388,-0.358775 -0.0674,-0.178506 -0.15028,-0.394053 -0.39053,-0.416278 -0.32808,-0.03034 -0.59972,-0.202494 -0.89041,-0.328436 -0.29809,-0.130528 -0.56762,-0.375708 -0.91687,-0.324556 -0.34466,0.05009 -0.78704,-0.464608 -0.77399,-0.780697 0.006,-0.154516 -0.084,-0.2921 -0.16581,-0.416983 -0.0586,-0.0889 -0.0896,-0.164747 -0.0416,-0.256822 0.14006,-0.268111 0.33761,-0.500945 0.48507,-0.75812 0.21238,-0.370769 0.40464,-0.75318 0.62371,-1.121833 0.18451,-0.31115 0.48084,-0.485775 0.7419,-0.704145 0.2607,-0.218369 0.69179,-0.07761 0.90134,-0.417336 0.0145,-0.02364 0.0677,-0.03387 0.10125,-0.03246 0.0868,0.0042 0.12559,-0.04833 0.17851,-0.105481 0.109,-0.117122 0.0469,-0.243064 0.049,-0.368653 0.007,-0.430036 7.9e-4,-0.857602 0.055,-1.28905 0.0808,-0.643466 0.31891,-1.237544 0.49318,-1.850672 0.0794,-0.279047 0.21802,-0.542219 0.27658,-0.83185 0.0427,-0.209197 0.1143,-0.394052 0.35807,-0.440266 h 0.13652 c 0.10971,0.07232 0.21625,0.195791 0.34714,0.172508 0.28892,-0.05256 0.58702,0.174272 0.60219,0.470606 0.0141,0.251883 -0.0769,0.485069 -0.10125,0.728133 -0.0392,0.404636 0.11571,0.786341 0.18838,1.176161 0.11078,0.60078 0.14041,1.18498 -0.15804,1.74378 -0.12242,0.228953 -0.0515,0.473428 -0.0614,0.710495 -7.9e-4,0.02152 0.0416,0.05362 0.0705,0.06562 0.18591,0.07761 0.29633,0.224366 0.2988,0.415925 0.003,0.158044 0.091,0.197908 0.20285,0.246238 0.12171,0.05292 0.24941,0.09984 0.35595,0.175684 0.0952,0.06668 0.18945,0.06809 0.27376,0.02681 0.51541,-0.255764 1.06927,-0.305858 1.63089,-0.334786 0.23707,-0.0127 0.48084,-0.03669 0.67098,-0.20955 0.10125,-0.09172 0.19968,-0.188031 0.33338,-0.230717 0.74083,-0.239183 1.46085,-0.528814 2.25601,-0.5969 1.00648,-0.08608 1.95263,0.08678 2.87655,0.458258 0.25012,0.100542 0.49354,0.219781 0.74754,0.303742 0.28328,0.09384 0.55068,0.219075 0.81809,0.344664 0.0226,0.01023 0.0441,0.02258 0.0653,0.03457 v -8.266294 h -19.056 v 19.056704 h 19.05599 v -2.979916 c -0.52705,0.0822 -1.05339,0.161925 -1.58326,0.222603"
         style="fill:#008c8e;fill-opacity:1;fill-rule:nonzero;stroke:none;stroke-width:0.35277775"
         id="path258"
         inkscape:connector-curvature="0" />
      <path
         inkscape:connector-curvature="0"
         id="path260"
         style="fill:#008c8e;fill-opacity:1;fill-rule:nonzero;stroke:none;stroke-width:0.35277775"
         d="m 216.48744,101.99849 h -19.05635 v -0.32597 h 19.05635 z" />
      <path
         inkscape:connector-curvature="0"
         id="path262"
         style="fill:#008c8e;fill-opacity:1;fill-rule:nonzero;stroke:none;stroke-width:0.35277775"
         d="m 216.48744,102.78553 h -19.05635 v -0.32667 h 19.05635 z" />
      <path
         d="m 154.04362,101.75397 c -0.0279,-0.0702 -0.0554,-0.1404 -0.0921,-0.20672 -0.0406,-0.073 -0.0709,-0.0688 -0.11712,0.008 -0.23036,0.38311 -0.26317,0.52528 -0.32809,0.9532 -0.0116,0.0737 -0.0169,0.14746 -0.0212,0.22119 h 0.81033 c 0.0508,-0.35912 -0.12664,-0.66075 -0.25188,-0.97578"
         style="fill:#9dc544;fill-opacity:1;fill-rule:nonzero;stroke:none;stroke-width:0.35277778"
         id="path278"
         inkscape:connector-curvature="0" />
      <path
         d="m 159.23986,101.66715 c 0.0145,-0.18203 0.0236,-0.35771 0.008,-0.54221 -0.024,-0.28187 -0.1845,-0.46038 -0.3743,-0.61666 -0.34643,-0.2861 -0.7045,-0.557389 -0.98707,-0.911578 -0.055,-0.0695 -0.11289,-0.13723 -0.17216,-0.202494 -0.11147,-0.122767 -0.16404,-0.140759 -0.2868,-0.04163 -0.27341,0.221897 -0.60749,0.242711 -0.93028,0.3048 -0.0476,0.0088 -0.10301,0.0014 -0.14993,-0.01376 -0.28822,-0.09031 -0.57467,-0.06421 -0.86007,0.006 -0.12277,0.02963 -0.25083,0.01058 -0.37253,0.06138 -0.20391,0.08467 -0.30833,0.2413 -0.25436,0.455432 0.0406,0.16193 -0.006,0.29069 -0.0857,0.4244 -0.0452,0.0765 0.0296,0.18203 -0.0434,0.25929 -0.007,0.17497 0.006,0.14464 0.003,0.21837 -0.005,0.0956 -0.0501,0.19014 -0.0265,0.28716 0.0564,0.22966 0.0981,0.4639 0.18944,0.68298 0.0529,0.12594 0.0138,0.2674 0.0914,0.39334 0.055,0.0903 0.0741,0.19438 0.0988,0.29775 h 3.97439 c 0.0381,-0.12912 0.0586,-0.26071 0.0868,-0.39088 0.0483,-0.2219 0.0723,-0.44626 0.091,-0.67169"
         style="fill:#9dc544;fill-opacity:1;fill-rule:nonzero;stroke:none;stroke-width:0.35277778"
         id="path282"
         inkscape:connector-curvature="0" />
      <path
         d="m 142.24384,91.134129 c 0.61948,-0.128764 1.24001,-0.255059 1.87325,-0.307975 0.49565,-0.04128 0.8509,-0.285397 1.17757,-0.684742 0.42722,-0.521758 0.81598,-1.072444 1.25624,-1.582208 0.15911,-0.183797 0.2667,-0.389114 0.33797,-0.614539 0.16368,-0.517525 0.90769,-0.986014 1.4485,-0.894292 0.42263,0.07161 0.77999,-0.04833 1.08832,-0.336903 h 0.12947 c -0.11536,0.339725 -0.11395,0.333375 0.24377,0.414867 0.17992,0.04127 0.33725,-0.03316 0.50447,-0.05821 0.0921,-0.01305 0.18697,-0.07479 0.26176,0.03104 0.0773,0.109714 0.0201,0.215194 -0.0427,0.295628 -0.10407,0.134408 -0.22437,0.259291 -0.34995,0.375003 -0.1323,0.121003 -0.16017,0.224367 -0.0381,0.380294 0.19861,0.255411 0.44626,0.456848 0.66992,0.684036 0.3422,0.348192 0.89923,0.545748 0.88053,1.168048 v 0.193675 c -0.27587,0.434622 -0.63747,0.645583 -1.1684,0.491772 -0.18415,-0.05362 -0.25893,0.09313 -0.30832,0.25153 -0.12736,0.41275 0.073,0.774348 0.17039,1.152878 0.0187,0.07373 0.13652,0.141111 0.031,0.221192 -0.0713,0.05433 -0.16581,0.04057 -0.248,0.01164 -0.10196,-0.03669 -0.18486,-0.102658 -0.26882,-0.17145 -0.13652,-0.113241 -0.24342,-0.277988 -0.44803,-0.286808 -0.0173,-0.0014 -0.037,-0.02328 -0.0497,-0.03916 -0.15381,-0.208845 -0.0977,-0.496359 -0.27552,-0.706967 -0.0628,-0.07514 0.036,-0.222603 0.0861,-0.3302 0.13053,-0.279047 0.11854,-0.303742 -0.18521,-0.380294 -0.49247,-0.123825 -0.57679,-0.112184 -0.84137,0.458258 -0.44344,0.954264 -1.08162,1.798461 -1.51377,2.758017 -0.16722,0.37218 -0.28258,0.748241 -0.24412,1.146527 0.085,0.876653 -0.28152,1.537406 -0.8636,2.156178 -0.30127,0.318911 -0.5775,0.646994 -0.96344,0.866069 -0.12065,0.06738 -0.12312,0.198262 -0.12665,0.314678 -0.006,0.214489 -0.0254,0.434975 0.0106,0.64382 0.16581,0.972608 0.0205,1.951219 0.0663,2.925229 0.0173,0.36054 0.0794,0.70979 0.18133,1.04881 h 8.01547 c 0.13088,-0.47942 0.0293,-0.96731 0.0628,-1.44956 0.009,-0.12771 0.0212,-0.248 0.0723,-0.36724 0.115,-0.26952 0.17885,-0.55492 0.2293,-0.84279 0.0251,-0.143933 -0.0148,-0.272697 -0.15275,-0.358774 -0.0885,-0.05609 -0.17004,-0.105481 -0.2787,-0.133703 -0.13546,-0.03598 -0.26705,-0.105481 -0.37676,-0.226836 -0.16263,-0.181328 -0.29704,-0.383822 -0.40499,-0.589845 -0.16263,-0.310091 -0.35278,-0.617361 -0.40111,-0.977547 -0.0173,-0.129117 -0.004,-0.255764 0.0374,-0.376414 0.0575,-0.168628 0.0392,-0.33408 -0.0459,-0.476602 -0.084,-0.140759 -0.11289,-0.292806 -0.0956,-0.437092 0.0282,-0.24377 -0.0384,-0.464961 -0.10654,-0.687564 -0.0427,-0.140406 -0.0533,-0.269169 -0.002,-0.407811 0.0455,-0.122061 0.0106,-0.173567 -0.11959,-0.182739 -0.32068,-0.02046 -0.60889,-0.141111 -0.88547,-0.288572 -0.0917,-0.04904 -0.1577,-0.144639 -0.23495,-0.219075 v -0.228953 c 0.073,-0.09842 0.17709,-0.132644 0.29421,-0.143228 0.23143,-0.01905 0.46214,-0.06456 0.68722,0.04621 0.10653,0.05292 0.236,0.06491 0.33231,0.128764 0.1337,0.08819 0.19191,0.02822 0.27023,-0.07091 0.18274,-0.232834 0.42792,-0.285045 0.69744,-0.185914 0.16193,0.05997 0.33832,0.03492 0.4953,0.112889 0.1083,0.05362 0.22119,0.09313 0.28893,0.203905 0.0706,0.1143 0.18556,0.09984 0.28998,0.07655 0.14711,-0.03246 0.2921,-0.07726 0.43603,-0.123472 0.12136,-0.03775 0.23707,-0.02752 0.35349,0.01658 0.0702,0.02752 0.14111,0.05398 0.21272,0.07938 0.13229,0.04763 0.21696,0.155575 0.22119,0.274814 0.005,0.144639 -0.0917,0.21978 -0.19826,0.275167 -0.27905,0.143227 -0.57115,0.237419 -0.89288,0.199672 -0.0367,-0.0049 -0.078,-0.0028 -0.11218,0.01023 -0.0931,0.03598 -0.10019,0.113595 -0.0173,0.174978 0.0769,0.05715 0.14852,0.118533 0.19967,0.201436 0.0674,0.109361 0.1651,0.146756 0.2921,0.130175 0.17145,-0.02222 0.33972,0.02258 0.50906,0.03422 0.39899,0.02893 0.77575,0.190852 1.17898,0.183444 0.0632,-0.0014 0.12982,0.0014 0.18803,-0.01799 0.47872,-0.158397 0.97861,-0.207433 1.47179,-0.289983 0.3563,-0.05997 0.70203,-0.166864 1.05869,-0.230011 0.35313,-0.06209 0.69285,-0.01058 1.0227,0.08255 v -11.97503 h -19.05634 v 7.636933 c 0.65793,0.02611 1.3275,-0.03845 1.98261,-0.175683"
         style="fill:#9dc544;fill-opacity:1;fill-rule:nonzero;stroke:none;stroke-width:0.35277775"
         id="path286"
         inkscape:connector-curvature="0" />
      <path
         d="m 142.3048,102.44298 c 0.20073,-0.47872 0.18803,-0.98601 0.21378,-1.48413 0.0487,-0.95497 -0.17356,-1.899005 -0.14957,-2.85468 0.004,-0.180622 -0.0981,-0.23495 -0.24907,-0.183797 -0.16968,0.05715 -0.3436,0.05997 -0.51011,0.03775 -0.26176,-0.03457 -0.51224,0.03986 -0.70415,0.164747 -0.20637,0.133703 -0.42298,0.227189 -0.64452,0.300214 v 4.306716 h 2.00942 c -0.0138,-0.0903 -0.009,-0.18415 0.0342,-0.28681"
         style="fill:#9dc544;fill-opacity:1;fill-rule:nonzero;stroke:none;stroke-width:0.35277778"
         id="path290"
         inkscape:connector-curvature="0" />
      <path
         d="m 143.7714,102.5353 c 0.0956,-0.54645 -0.0353,-1.09078 -0.12947,-1.62948 -0.0145,-0.0829 -0.043,-0.18556 -0.14393,-0.19155 -0.11924,-0.008 -0.11466,0.11077 -0.13512,0.18732 -0.15487,0.56797 -0.11394,1.14794 -0.096,1.72614 7.2e-4,0.0328 0.0152,0.0681 0.031,0.10196 h 0.45121 c 0.005,-0.0642 0.0106,-0.12877 0.0222,-0.19439"
         style="fill:#9dc544;fill-opacity:1;fill-rule:nonzero;stroke:none;stroke-width:0.35277778"
         id="path294"
         inkscape:connector-curvature="0" />
      <path
         inkscape:connector-curvature="0"
         id="path296"
         style="fill:#9dc544;fill-opacity:1;fill-rule:nonzero;stroke:none;stroke-width:0.35277775"
         d="m 159.31733,82.426374 h -19.05635 v -0.326672 h 19.05635 z" />
      <path
         inkscape:connector-curvature="0"
         id="path298"
         style="fill:#9dc544;fill-opacity:1;fill-rule:nonzero;stroke:none;stroke-width:0.35277775"
         d="m 159.31733,83.212363 h -19.05635 v -0.325967 h 19.05635 z" />
      <path
         d="m 171.91023,84.213616 c -0.13229,-1.213202 -0.73378,-2.410177 -1.35961,-3.643488 -0.52705,0.381 -1.06609,0.763411 -1.58044,1.174044 -0.73166,0.5842 -1.37654,1.205795 -1.78506,1.915583 -0.0656,0.117123 -0.12558,0.236361 -0.17921,0.358775 -0.0159,0.226131 -0.013,0.455436 0.0124,0.684389 0.13194,1.213203 0.73343,2.409472 1.35925,3.642078 0.52705,-0.381 1.06645,-0.763411 1.5808,-1.174045 0.73166,-0.583494 1.37689,-1.205794 1.78435,-1.914877 0.0667,-0.115711 0.127,-0.236361 0.17992,-0.357717 0.0166,-0.227189 0.0127,-0.456847 -0.0124,-0.684742"
         style="fill:#008c8e;fill-opacity:1;fill-rule:nonzero;stroke:none;stroke-width:0.35277775"
         id="path302"
         inkscape:connector-curvature="0" />
      <path
         d="m 165.47341,96.739979 c -0.33972,-0.761294 -0.60396,-1.518708 -0.68474,-2.25178 -0.29387,-1.264356 0.32702,-2.902656 0.88865,-3.660775 0.50517,-0.761295 1.24248,-1.393825 2.0514,-2.003425 -0.47272,-0.963436 -0.8763,-1.909587 -0.99307,-2.86632 l -7.9e-4,0.0011 c -0.23459,-1.164874 -0.0198,-2.695224 0.90206,-3.75144 0.4071,-0.603603 0.98178,-1.144411 1.62313,-1.656645 0.30339,-0.242358 0.61559,-0.473075 0.92816,-0.700616 -0.139,-0.281164 -0.27552,-0.564445 -0.40358,-0.8509 -0.18204,-0.40781 -0.34114,-0.813858 -0.46355,-1.216024 h -10.00399 v 19.056691 h 6.20253 c -0.0152,-0.03351 -0.031,-0.06668 -0.0462,-0.09984"
         style="fill:#008c8e;fill-opacity:1;fill-rule:nonzero;stroke:none;stroke-width:0.35277775"
         id="path306"
         inkscape:connector-curvature="0" />
      <path
         d="m 170.84089,79.37601 c 0.70838,-0.51188 1.38924,-1.023055 1.95615,-1.593144 h -2.7312 c 0.003,0.0078 0.006,0.01446 0.009,0.02223 0.23812,0.532694 0.50412,1.054805 0.76588,1.570919"
         style="fill:#008c8e;fill-opacity:1;fill-rule:nonzero;stroke:none;stroke-width:0.35277775"
         id="path310"
         inkscape:connector-curvature="0" />
      <path
         d="m 173.42608,77.783007 c -0.055,0.103364 -0.11007,0.206728 -0.17463,0.305153 -0.50553,0.762 -1.24283,1.393825 -2.05175,2.003777 0.37289,0.759884 0.70379,1.509536 0.88335,2.262011 0.44309,1.517297 0.042,3.466395 -0.84737,4.434417 0.006,-0.0081 0.0102,-0.01693 0.0166,-0.0254 -0.40463,0.58173 -0.96238,1.105958 -1.58432,1.60267 -0.30304,0.242005 -0.6149,0.472722 -0.92816,0.699911 0.13899,0.281164 0.27552,0.564444 0.40322,0.851252 0.34043,0.762 0.60502,1.518356 0.6851,2.250723 l 2.6e-4,-0.0014 c 0.29422,1.265767 -0.32773,2.906536 -0.88865,3.662892 -0.23989,0.362656 -0.53269,0.695325 -0.86007,1.011061 h 10.29406 V 77.783007 Z"
         style="fill:#008c8e;fill-opacity:1;fill-rule:nonzero;stroke:none;stroke-width:0.35277775"
         id="path314"
         inkscape:connector-curvature="0" />
      <path
         d="m 168.85376,91.109328 c -0.23847,-0.532694 -0.50447,-1.054805 -0.76623,-1.570213 -1.05657,0.763411 -2.06234,1.519766 -2.70016,2.483202 -0.127,0.192264 -0.23495,0.393347 -0.32456,0.602897 -0.009,0.132998 -0.0109,0.267406 -0.006,0.402873 0.0385,0.814563 0.32632,1.663347 0.70662,2.517775 0.19579,0.437444 0.40992,0.868186 0.62582,1.293988 h 0.52 c 0.91369,-0.672394 1.76001,-1.358547 2.32057,-2.204861 0.12736,-0.192264 0.23495,-0.394758 0.32526,-0.605014 0.008,-0.13088 0.0113,-0.265288 0.005,-0.400049 -0.0385,-0.816681 -0.32561,-1.665464 -0.70626,-2.520598"
         style="fill:#008c8e;fill-opacity:1;fill-rule:nonzero;stroke:none;stroke-width:0.35277775"
         id="path318"
         inkscape:connector-curvature="0" />
      <path
         inkscape:connector-curvature="0"
         id="path320"
         style="fill:#008c8e;fill-opacity:1;fill-rule:nonzero;stroke:none;stroke-width:0.35277775"
         d="M 178.37333,97.584176 H 159.31698 V 97.25821 h 19.05635 z" />
      <path
         inkscape:connector-curvature="0"
         id="path322"
         style="fill:#008c8e;fill-opacity:1;fill-rule:nonzero;stroke:none;stroke-width:0.35277775"
         d="m 178.37333,98.370871 h -19.05635 v -0.325967 h 19.05635 z" />
      <path
         d="m 188.03362,99.801279 c 0.16581,-0.190853 0.0783,-0.471311 0.20743,-0.626181 0.22508,-0.268816 0.35631,-0.589844 0.5648,-0.858661 0.22931,-0.294216 0.1651,-0.684741 0.37853,-0.974372 -0.12418,-0.230011 0.0106,-0.384528 0.15275,-0.540808 0.0296,-0.03387 0.037,-0.09031 0.0473,-0.138289 0.0215,-0.102306 0.003,-0.140758 -0.12101,-0.105481 -0.27058,0.0762 -0.49177,0.243064 -0.73483,0.372534 -0.34326,0.183444 -0.73237,0.265994 -1.07456,0.438855 -0.40182,0.204259 -0.82233,0.283986 -1.25166,0.356306 -0.2988,0.04974 -0.5976,0.108303 -0.89817,0.130175 -0.2794,0.02081 -0.52211,0.169686 -0.78917,0.201436 -0.50376,0.06068 -1.00894,0.132292 -1.52082,0.09701 -0.14781,-0.0095 -0.28328,0.03986 -0.37289,0.164041 -0.0945,0.131587 -0.23989,0.159809 -0.35912,0.112889 -0.35313,-0.137583 -0.66499,-0.371827 -0.76377,-0.739069 -0.0787,-0.290336 -0.3108,-0.487892 -0.36336,-0.776817 V 96.57477 c 0.127,-0.0628 0.26388,-0.04092 0.39758,-0.04621 0.10407,-0.0042 0.18415,-0.03598 0.19015,-0.153811 0.012,-0.214137 0.15734,-0.341842 0.30162,-0.467784 0.0762,-0.06703 0.14993,-0.134408 0.18204,-0.230011 0.121,-0.3556 0.33831,-0.640997 0.57538,-0.932392 0.3817,-0.471311 0.68086,-1.018469 0.79057,-1.617133 0.0688,-0.374297 0.0646,-0.771172 0.1076,-1.156053 0.037,-0.325966 -0.049,-0.636058 -0.0127,-0.999066 0.0222,-0.215195 -0.14217,-0.633236 -0.20673,-0.839259 -0.18097,-0.578908 -0.49424,-1.093611 -0.99518,-1.429808 -0.51859,-0.347133 -0.78352,-1.500717 -0.36337,-2.115961 0.15205,-0.222603 0.68051,-0.258939 0.83397,-0.04269 0.10583,0.149578 0.20638,0.305858 0.2854,0.470606 0.16475,0.339019 0.46461,0.572558 0.6671,0.881944 0.0325,0.04939 0.0956,0.09031 0.15311,0.108655 0.23212,0.07373 0.32773,0.262114 0.38382,0.468137 0.0416,0.152752 0.12559,0.264583 0.23354,0.370416 0.0938,0.09172 0.15628,0.06985 0.20955,-0.04057 0.10548,-0.217664 0.23389,-0.420159 0.39052,-0.606425 0.28399,-0.337609 0.46708,-0.389114 0.87136,-0.227189 0.13653,0.05433 0.26459,0.07161 0.37218,-0.04551 0.5327,-0.581378 1.16523,-1.050925 1.74872,-1.575859 0.63641,-0.571852 1.282,-1.119716 2.0574,-1.513769 0.72567,-0.367947 1.4785,-0.628297 2.26519,-0.809625 0.10336,-0.02399 0.21026,-0.03316 0.31503,-0.0508 0.85549,-0.143581 1.7272,-0.169686 2.57457,-0.376414 0.65511,-0.159808 1.31304,-0.309386 1.9678,-0.470606 v -2.303279 h -19.05637 v 19.05635 h 9.5885 c 0.0233,-0.02575 0.0469,-0.05115 0.0702,-0.07938"
         style="fill:#9dc544;fill-opacity:1;fill-rule:nonzero;stroke:none;stroke-width:0.35277778"
         id="path326"
         inkscape:connector-curvature="0" />
      <path
         d="m 196.62503,98.512829 c -0.0681,-0.08396 -0.14252,-0.173567 -0.15275,-0.276225 -0.0416,-0.436386 -0.26917,-0.795161 -0.46038,-1.170869 -0.0967,-0.189442 -0.16474,-0.4064 -0.19156,-0.603603 -0.0586,-0.436034 -0.12488,-0.869245 -0.23953,-1.291872 -0.19121,-0.702734 -0.28857,-0.799042 -0.94721,-0.764823 -0.19121,0.01058 -0.38241,0.0028 -0.57362,0.0014 -0.28328,-0.0025 -0.56374,-0.0021 -0.84137,0.08079 -0.1718,0.0515 -0.3048,0.141817 -0.34925,0.305859 -0.0441,0.164747 -0.1397,0.286103 -0.22966,0.421569 -0.18768,0.283281 -0.40428,0.543631 -0.59408,0.826206 -0.36442,0.542219 -0.60854,1.143705 -0.93239,1.704622 -0.12876,0.222603 -0.14499,0.521053 -0.33443,0.676628 -0.36866,0.303741 -0.29704,0.655461 -0.18909,1.017058 0.048,0.161925 0.0437,0.306564 -0.002,0.440972 h 6.35847 c -0.024,-0.224014 -0.0448,-0.448027 -0.0473,-0.673805 -0.002,-0.268111 -0.10972,-0.492831 -0.27376,-0.693914"
         style="fill:#9dc544;fill-opacity:1;fill-rule:nonzero;stroke:none;stroke-width:0.35277778"
         id="path330"
         inkscape:connector-curvature="0" />
      <path
         inkscape:connector-curvature="0"
         id="path332"
         style="fill:#9dc544;fill-opacity:1;fill-rule:nonzero;stroke:none;stroke-width:0.35277775"
         d="m 197.43109,79.518074 h -19.05635 v -0.325967 h 19.05635 z" />
      <path
         inkscape:connector-curvature="0"
         id="path334"
         style="fill:#9dc544;fill-opacity:1;fill-rule:nonzero;stroke:none;stroke-width:0.35277775"
         d="m 197.43109,80.304768 h -19.05635 v -0.326672 h 19.05635 z" />
    </g>
    <g
       transform="matrix(0.42469689,0,0,-0.42469689,-37.650629,148.108)"
       id="g12">
      <g
         id="g14"
         clip-path="url(#clipPath18)">
        <g
           id="g20"
           transform="translate(73.3923,135.74)">
          <path
             d="m 0,0 h -12.653 c -0.505,0 -0.914,-0.41 -0.914,-0.916 v -73.207 c 0,-0.505 0.409,-0.916 0.914,-0.916 H 0 c 0.504,0 0.914,0.411 0.914,0.916 V -0.916 C 0.914,-0.41 0.504,0 0,0"
             style="fill:#00a3a6;fill-opacity:1;fill-rule:nonzero;stroke:none"
             id="path22"
             inkscape:connector-curvature="0" />
        </g>
        <g
           id="g24"
           transform="translate(144.6945,135.74)">
          <path
             d="m 0,0 h -12.604 c -0.505,0 -0.914,-0.41 -0.914,-0.916 v -48.96 L -44.519,-0.429 C -44.686,-0.162 -44.979,0 -45.292,0 h -12.704 c -0.504,0 -0.915,-0.41 -0.915,-0.916 v -73.207 c 0,-0.505 0.411,-0.916 0.915,-0.916 h 12.704 c 0.504,0 0.915,0.411 0.915,0.916 v 48.762 l 30.899,-49.25 c 0.167,-0.265 0.459,-0.428 0.773,-0.428 H 0 c 0.504,0 0.914,0.411 0.914,0.916 V -0.916 C 0.914,-0.41 0.504,0 0,0"
             style="fill:#00a3a6;fill-opacity:1;fill-rule:nonzero;stroke:none"
             id="path26"
             inkscape:connector-curvature="0" />
        </g>
        <g
           id="g28"
           transform="translate(193.072,103.9554)">
          <path
             d="m 0,0 c -2.227,-1.997 -5.399,-3.009 -9.433,-3.009 h -12.141 v 22.706 h 12.48 C -4.937,19.633 -1.791,18.602 0.253,16.635 2.282,14.677 3.31,11.837 3.31,8.192 3.31,4.679 2.228,2 0,0 m 4.797,-11.638 c 3.922,1.815 7.06,4.345 9.335,7.529 2.462,3.448 3.71,7.765 3.71,12.835 0,7.433 -2.426,13.208 -7.211,17.162 C 5.897,29.8 -0.87,31.785 -9.483,31.785 h -25.708 c -0.506,0 -0.915,-0.41 -0.915,-0.916 v -73.207 c 0,-0.505 0.409,-0.915 0.915,-0.915 h 12.703 c 0.504,0 0.914,0.41 0.914,0.915 v 27.241 H -8.882 L 5.525,-42.761 c 0.157,-0.302 0.469,-0.492 0.809,-0.492 h 13.608 c 0.505,0 0.914,0.41 0.914,0.915 v 0.652 c 0,0.153 -0.038,0.301 -0.11,0.435 z"
             style="fill:#00a3a6;fill-opacity:1;fill-rule:nonzero;stroke:none"
             id="path30"
             inkscape:connector-curvature="0" />
        </g>
        <g
           id="g32"
           transform="translate(354.1374,98.1492)">
          <path
             d="m 0,0 c 0,5.144 -1.096,10.208 -3.097,14.916 -0.367,0.541 -0.731,0.225 -0.86,0.075 L -11.58,3.025 c -0.682,-1.19 -1.18,-2.02 -1.313,-5.002 -0.007,-0.207 -0.018,-0.375 -0.048,-0.524 -1.261,-12.897 -12.162,-23.009 -25.383,-23.009 -2.476,0 -4.935,0.36 -7.309,1.072 -4.038,1.21 -7.753,3.434 -10.743,6.431 -0.106,0.107 -0.211,0.215 -0.314,0.324 16.257,7.176 29.868,19.674 38.42,35.313 1.871,3.421 3.505,7.007 4.859,10.662 0.134,0.361 0.026,0.769 -0.27,1.017 -2.845,2.398 -6.006,4.362 -9.392,5.838 -4.832,2.108 -9.963,3.177 -15.251,3.177 -0.008,0 -0.015,-10e-4 -0.022,-10e-4 -0.007,0 -0.013,10e-4 -0.021,10e-4 -13.111,0 -24.696,-6.642 -31.595,-16.735 C -74.175,15.437 -76.648,8.004 -76.648,0 c 0,-3.626 0.511,-7.215 1.524,-10.682 -1.741,-0.366 -3.505,-0.664 -5.263,-0.892 L -98.743,37 c -0.133,0.355 -0.475,0.59 -0.854,0.59 h -11.399 c -0.38,0 -0.721,-0.235 -0.855,-0.591 l -27.617,-73.207 c -0.106,-0.281 -0.068,-0.596 0.103,-0.844 0.172,-0.248 0.451,-0.396 0.751,-0.396 h 13.208 c 0.386,0 0.733,0.247 0.863,0.615 l 4.433,12.731 h 29.616 l 0.138,-0.398 4.306,-12.333 c 0.129,-0.368 0.475,-0.615 0.863,-0.615 h 13.256 c 0.3,0 0.582,0.148 0.752,0.396 0.17,0.248 0.209,0.563 0.104,0.844 l -4.833,12.787 c 2.06,0.342 4.116,0.771 6.136,1.271 0.057,0.015 0.116,0.025 0.174,0.039 0.055,-0.079 0.112,-0.16 0.168,-0.238 2.512,-3.491 5.568,-6.518 9.082,-8.996 6.474,-4.566 14.075,-6.98 21.981,-6.98 v 0.002 c 0.014,0 0.028,-0.002 0.043,-0.002 C -17.192,-38.325 0,-21.132 0,0 m -38.354,25.508 c 3.195,-10e-4 6.309,-0.593 9.273,-1.764 -7.459,-13.766 -19.405,-24.586 -33.807,-30.618 -0.628,2.238 -0.946,4.545 -0.946,6.874 0,14.057 11.429,25.492 25.48,25.508 m -56.395,-37.425 0.098,-0.278 h -21.312 l 1.685,4.839 8.958,25.718 z"
             style="fill:#00a3a6;fill-opacity:1;fill-rule:nonzero;stroke:none"
             id="path34"
             inkscape:connector-curvature="0" />
        </g>
      </g>
    </g>
  </g>
</svg>
